# xmcd
#
# Track frame offsets:
#	183
#	18615
#	37125
#	61283
#
# Disc length: 1168 seconds
#
# Revision: 1
# Processed by: cddbd v1.5.2PL0 Copyright (c) Steve Scherf et al.
# Submitted via: audiograbber 1.83.01
#
DISCID=32048e04
DTITLE=Tongue N Cheek - Forget Me Not$
DYEAR=1990
DGENRE=R&B
TTITLE0=Forget Me Not$ (7" Version)
TTITLE1=Forget Me Not$ (The Slammer Mix)
TTITLE2=Cushion Of Love
TTITLE3=Forget Me Not$ (The DNA Mix)
EXTD=
EXTT0=
EXTT1=
EXTT2=
EXTT3=
PLAYORDER=
